#!OML:ASF Y:\EmotionMaleHayes\Project 1\Capture day 1\Session 1\Male1.ASF
:FULLY-SPECIFIED
:DEGREES
225
root 16.5338 16.2115 -0.743257 95.9799 80.82 93.5376
lowerback 15.6102 3.01807 -10.4662
upperback 2.85336 2.28649 -3.95567
thorax -5.91333 1.39696 1.1824
lowerneck -26.2755 -2.25039 -1.6258
upperneck 9.73222 -2.83786 2.88963
head 7.23674 -1.0872 0.851856
rclavicle -8.54774e-015 3.02153e-014
rhumerus -52.3473 19.1574 -99.6171
rradius 100.942
rwrist -23.9287
rhand -28.8286 -23.7206
rfingers 7.12502
rthumb -2.18614 -53.6891
lclavicle -8.54774e-015 3.02153e-014
lhumerus -66.5025 -19.2276 94.7596
lradius 93.0634
lwrist 21.9555
lhand -38.6014 -29.5479
lfingers 7.12502
lthumb -11.6192 0.109985
rfemur 2.0284 -4.59643 3.24982
rtibia 78.5431
rfoot 173.306 22.9614
rtoes 15.0787
lfemur -22.0508 0.117835 -34.9108
ltibia 40.3938
lfoot -18.2203 2.79352
ltoes -0.0143036
226
root 16.8861 16.1041 -0.755744 102.442 78.685 100.237
lowerback 16.0776 2.47701 -12.4135
upperback 3.21706 1.25636 -4.33818
thorax -5.68227 0.9346 2.05655
lowerneck -27.048 -2.12262 -1.76979
upperneck 9.52504 -2.59902 2.98431
head 7.28152 -0.956725 0.936898
rclavicle -1.47101e-014 -1.94809e-014
rhumerus -53.4262 18.5191 -99.4237
rradius 99.5672
rwrist -23.2859
rhand -28.8217 -23.5647
rfingers 7.12502
rthumb -2.17954 -53.5333
lclavicle -1.47101e-014 -1.94809e-014
lhumerus -62.9508 -20.0696 94.7525
lradius 92.3996
lwrist 22.4069
lhand -39.4049 -30.3058
lfingers 7.12502
lthumb -12.394 -0.693222
rfemur -0.160339 -7.14663 0.443617
rtibia 74.2929
rfoot 173.823 20.6148
rtoes 14.7721
lfemur -20.258 -0.870348 -37.4144
ltibia 40.5318
lfoot -19.2406 2.13613
ltoes -0.111918
227
root 17.2395 16.023 -0.775804 106.966 77.5441 104.884
lowerback 16.4265 1.99502 -13.1683
upperback 3.56089 0.508913 -4.51394
thorax -5.39358 0.575426 2.43997
lowerneck -27.8348 -2.13537 -1.97224
upperneck 9.33248 -2.54422 3.2074
head 7.33896 -0.901362 1.0504
rclavicle -5.96354e-015 3.93594e-014
rhumerus -54.6332 17.827 -99.1838
rradius 98.3127
rwrist -22.7116
rhand -28.7154 -24.0571
rfingers 7.12502
rthumb -2.07687 -54.0267
lclavicle -5.96354e-015 3.93594e-014
lhumerus -59.2662 -21.2434 94.7597
lradius 91.9168
lwrist 22.7789
lhand -40.179 -31.1175
lfingers 7.12502
lthumb -13.1404 -1.55152
rfemur -2.67642 -9.47757 -0.917892
rtibia 70.2851
rfoot 174.593 19.1965
rtoes 15.3156
lfemur -18.5227 -1.3625 -38.6542
ltibia 40.6096
lfoot -20.3458 1.29818
ltoes 1.05969
228
root 17.5934 15.9722 -0.787517 110.596 77.0612 108.38
lowerback 16.4195 1.54906 -13.461
upperback 3.80808 -0.0738826 -4.54459
thorax -5.03187 0.277489 2.69437
lowerneck -28.4048 -1.99506 -1.87231
upperneck 9.08963 -2.37869 3.32677
head 7.33758 -0.794483 1.09796
rclavicle -1.17283e-014 -2.70347e-014
rhumerus -55.9945 17.3345 -99.036
rradius 97.1954
rwrist -22.6426
rhand -29.5103 -25.0507
rfingers 7.12502
rthumb -2.84451 -55.0115
lclavicle -1.17283e-014 -2.70347e-014
lhumerus -55.5403 -22.4393 94.486
lradius 91.7023
lwrist 22.889
lhand -40.9138 -31.8149
lfingers 7.12502
lthumb -13.8485 -2.29597
rfemur -5.72677 -11.4289 -1.10016
rtibia 66.6786
rfoot 173.952 18.3158
rtoes 14.1161
lfemur -17.0031 -1.52619 -38.9904
ltibia 40.7901
lfoot -21.6887 -0.192152
ltoes 6.15849
229
root 17.9435 15.9453 -0.799732 112.8 76.8334 110.164
lowerback 16.0004 1.17928 -13.6707
upperback 3.95497 -0.491159 -4.59283
thorax -4.5784 0.0502929 2.84676
lowerneck -28.6907 -1.80564 -1.54855
upperneck 8.78304 -2.22087 3.35464
head 7.26869 -0.696771 1.07889
rclavicle -1.45113e-014 -2.78299e-014
rhumerus -57.4761 16.8716 -98.9939
rradius 96.2139
rwrist -22.767
rhand -29.8404 -26.1447
rfingers 7.12502
rthumb -3.16334 -56.1009
lclavicle -1.45113e-014 -2.78299e-014
lhumerus -51.8632 -23.6418 93.8809
lradius 91.6728
lwrist 22.6568
lhand -41.4771 -32.5636
lfingers 7.12502
lthumb -14.3914 -3.08252
rfemur -9.34556 -12.7525 -0.837402
rtibia 63.5331
rfoot 173.987 16.9912
rtoes 15.7076
lfemur -15.8255 -1.52598 -39.1055
ltibia 40.586
lfoot -22.675 -0.805656
ltoes 6.42178
230
root 18.3074 15.9448 -0.814049 111.741 76.4991 109.116
lowerback 15.7906 1.11454 -14.334
upperback 4.17892 -0.596111 -4.69803
thorax -4.18644 -0.0167302 3.11679
lowerneck -28.4412 -1.7585 -1.59717
upperneck 8.17586 -2.17677 3.78092
head 7.03441 -0.634297 1.23684
rclavicle 2.18663e-015 4.21423e-014
rhumerus -59.1433 16.351 -98.9484
rradius 95.4907
rwrist -23.3113
rhand -29.4492 -26.7387
rfingers 7.12502
rthumb -2.78556 -56.7003
lclavicle 2.18663e-015 4.21423e-014
lhumerus -48.3299 -24.7327 93.3337
lradius 91.7164
lwrist 22.1113
lhand -40.8274 -35.0393
lfingers 7.12502
lthumb -13.7652 -5.51465
rfemur -12.5954 -13.2039 -0.906429
rtibia 61.0848
rfoot 174.148 16.0635
rtoes 13.636
lfemur -13.8808 -0.978012 -39.4955
ltibia 39.9908
lfoot -23.7864 -1.18284
ltoes 5.20911
231
root 18.6509 15.9505 -0.814525 112.826 75.8095 110.324
lowerback 16.1727 0.934345 -15.1676
upperback 4.26109 -1.00578 -4.73493
thorax -4.20942 -0.202105 3.60628
lowerneck -28.6385 -1.82903 -1.61243
upperneck 8.26904 -2.30082 4.00827
head 7.10238 -0.666513 1.29915
rclavicle 2.24627e-014 4.73108e-014
rhumerus -61.1173 15.8181 -98.8566
rradius 95.1703
rwrist -24.2423
rhand -29.4001 -26.6455
rfingers 7.12502
rthumb -2.73809 -56.6077
lclavicle 2.24627e-014 4.73108e-014
lhumerus -44.9472 -25.5441 92.9032
lradius 91.8252
lwrist 21.3909
lhand -40.2558 -35.2603
lfingers 7.12502
lthumb -13.2143 -5.69908
rfemur -15.5921 -14.3567 -1.03046
rtibia 59.1055
rfoot 174.714 15.0412
rtoes 15.6698
lfemur -11.8414 -0.847929 -39.9549
ltibia 39.3764
lfoot -24.6259 -1.82317
ltoes 5.60693
232
root 18.9987 15.9715 -0.811653 114.701 75.6595 112.438
lowerback 16.7606 0.733848 -15.3454
upperback 4.25829 -1.40446 -4.64621
thorax -4.45189 -0.37603 3.87871
lowerneck -28.2943 -1.86966 -1.98513
upperneck 8.03449 -2.30458 4.58549
head 6.98875 -0.627842 1.55133
rclavicle -2.72335e-014 -5.64548e-014
rhumerus -63.3398 15.1929 -98.7949
rradius 95.2153
rwrist -25.217
rhand -29.4165 -26.5838
rfingers 7.12502
rthumb -2.754 -56.5458
lclavicle -2.72335e-014 -5.64548e-014
lhumerus -41.7433 -26.1747 92.4351
lradius 92.4382
lwrist 20.1614
lhand -39.588 -35.484
lfingers 7.12502
lthumb -12.5706 -5.88216
rfemur -18.4671 -15.3087 -0.284034
rtibia 57.7438
rfoot 174.433 14.2578
rtoes 16.3992
lfemur -9.59698 -0.562878 -39.5922
ltibia 38.4963
lfoot -25.1969 -2.77385
ltoes 7.85908
233
root 19.373 16.0067 -0.810222 114.95 75.9208 112.981
lowerback 17.0389 0.653457 -15.3475
upperback 4.26318 -1.56246 -4.56189
thorax -4.56627 -0.446274 4.00523
lowerneck -27.7894 -1.82955 -2.35785
upperneck 7.63726 -2.21529 5.30962
head 6.79737 -0.533721 1.86361
rclavicle 2.48481e-014 1.22451e-013
rhumerus -65.6556 14.682 -98.895
rradius 95.2876
rwrist -26.0001
rhand -29.2667 -26.1957
rfingers 7.12502
rthumb -2.60925 -56.1595
lclavicle 2.48481e-014 1.22451e-013
lhumerus -38.7247 -26.5521 91.8971
lradius 93.0858
lwrist 18.2035
lhand -39.0669 -36.0641
lfingers 7.12502
lthumb -12.0682 -6.43213
rfemur -21.3446 -15.4952 0.87386
rtibia 57.0625
rfoot 173.899 13.4411
rtoes 14.9717
lfemur -7.0158 0.13923 -38.8612
ltibia 37.1263
lfoot -25.5695 -3.55193
ltoes 8.94226
